<svg xmlns="http://www.w3.org/2000/svg" viewBox="0 0 512 512" fill="none">
  <defs><filter id="s" x="-20%" y="-20%" width="140%" height="140%"><feDropShadow dx="0" dy="18" stdDeviation="18" flood-color="#1a2f52" flood-opacity="0.08"/></filter></defs>
  <g filter="url(#s)">
    <rect x="112" y="118" width="44" height="276" rx="22" fill="#18325f"/>
    <rect x="356" y="118" width="44" height="276" rx="22" fill="#18325f"/>
    <path d="M176 176C216 150 248 150 288 176C326 200 346 200 378 182" stroke="#55d7cf" stroke-width="18" stroke-linecap="round"/>
    <path d="M176 256C222 230 250 230 292 256C324 276 346 276 378 262" stroke="#68b6ff" stroke-width="18" stroke-linecap="round"/>
    <path d="M176 334C212 312 244 312 284 334C322 356 346 356 378 342" stroke="#5fc58d" stroke-width="18" stroke-linecap="round"/>
    <circle cx="228" cy="176" r="14" fill="#f1b354"/>
    <circle cx="272" cy="256" r="14" fill="#8f7cff"/>
    <circle cx="318" cy="334" r="14" fill="#f17da1"/>
    <path d="M96 108c10 0 18 8 18 18v260c0 10-8 18-18 18" stroke="#d5deea" stroke-width="6" opacity="0.7"/>
    <path d="M416 108c-10 0-18 8-18 18v260c0 10 8 18 18 18" stroke="#d5deea" stroke-width="6" opacity="0.7"/>
  </g>
</svg>