<svg xmlns="http://www.w3.org/2000/svg" viewBox="0 0 256 256" width="256" height="256" fill="none">
  <defs>
    <filter id="softGlow" x="-50%" y="-50%" width="200%" height="200%">
      <feGaussianBlur stdDeviation="6" result="b"/>
      <feMerge><feMergeNode in="b"/><feMergeNode in="SourceGraphic"/></feMerge>
    </filter>
  </defs>
  <path d="M60 60 L128 60" stroke="#0b1b3c" stroke-width="12" stroke-linecap="round" opacity="0.88"/>
<path d="M128 60 L196 60" stroke="#0b1b3c" stroke-width="12" stroke-linecap="round" opacity="0.88"/>
<path d="M60 128 L128 128" stroke="#0b1b3c" stroke-width="12" stroke-linecap="round" opacity="0.88"/>
<path d="M128 128 L196 128" stroke="#0b1b3c" stroke-width="12" stroke-linecap="round" opacity="0.88"/>
<path d="M60 196 L128 196" stroke="#0b1b3c" stroke-width="12" stroke-linecap="round" opacity="0.88"/>
<path d="M128 196 L196 196" stroke="#0b1b3c" stroke-width="12" stroke-linecap="round" opacity="0.88"/>
<path d="M60 60 L60 128" stroke="#0b1b3c" stroke-width="12" stroke-linecap="round" opacity="0.88"/>
<path d="M60 128 L60 196" stroke="#0b1b3c" stroke-width="12" stroke-linecap="round" opacity="0.88"/>
<path d="M128 60 L128 128" stroke="#0b1b3c" stroke-width="12" stroke-linecap="round" opacity="0.88"/>
<path d="M128 128 L128 196" stroke="#0b1b3c" stroke-width="12" stroke-linecap="round" opacity="0.88"/>
<path d="M196 60 L196 128" stroke="#0b1b3c" stroke-width="12" stroke-linecap="round" opacity="0.88"/>
<path d="M196 128 L196 196" stroke="#0b1b3c" stroke-width="12" stroke-linecap="round" opacity="0.88"/>
<path d="M128 60 L128 128" stroke="#49d7f5" stroke-width="14" stroke-linecap="round"/>
<path d="M128 128 L128 196" stroke="#6887ff" stroke-width="14" stroke-linecap="round"/>
<path d="M60 128 L128 128" stroke="#67e0c4" stroke-width="14" stroke-linecap="round"/>
<circle cx="60" cy="60" r="11" fill="#ffffff" stroke="#0b1b3c" stroke-width="8"/>
<circle cx="128" cy="60" r="11" fill="#49d7f5" stroke="#0b1b3c" stroke-width="8"/>
<circle cx="196" cy="60" r="11" fill="#ffffff" stroke="#0b1b3c" stroke-width="8"/>
<circle cx="60" cy="128" r="11" fill="#ffffff" stroke="#0b1b3c" stroke-width="8"/>
<circle cx="128" cy="128" r="11" fill="#49d7f5" stroke="#0b1b3c" stroke-width="8"/>
<circle cx="196" cy="128" r="11" fill="#ffffff" stroke="#0b1b3c" stroke-width="8"/>
<circle cx="60" cy="196" r="11" fill="#ffffff" stroke="#0b1b3c" stroke-width="8"/>
<circle cx="128" cy="196" r="11" fill="#49d7f5" stroke="#0b1b3c" stroke-width="8"/>
<circle cx="196" cy="196" r="11" fill="#ffffff" stroke="#0b1b3c" stroke-width="8"/>
</svg>