<svg xmlns="http://www.w3.org/2000/svg" viewBox="0 0 512 512" fill="none">
  <defs>
    <filter id="shadow" x="-25%" y="-25%" width="150%" height="150%">
      <feDropShadow dx="0" dy="18" stdDeviation="18" flood-color="#102240" flood-opacity="0.14"/>
    </filter>
  </defs>
  <g filter="url(#shadow)">
    <rect x="120" y="142" width="272" height="20" rx="10" fill="#18325f"/>
    <rect x="136" y="198" width="240" height="16" rx="8" fill="#58d8d0"/>
    <rect x="112" y="248" width="288" height="22" rx="11" fill="#18325f"/>
    <rect x="136" y="300" width="240" height="16" rx="8" fill="#58d8d0"/>
    <rect x="120" y="350" width="272" height="20" rx="10" fill="#18325f"/>
    <path d="M256 164V348" stroke="#f0b34f" stroke-width="14" stroke-linecap="round" opacity="0.96"/>
    <rect x="214" y="220" width="84" height="84" rx="20" transform="rotate(45 256 262)" fill="#f0b34f"/>
    <circle cx="256" cy="262" r="23" fill="#eef5ff"/>
    <path d="M194 202L220 228M318 326L292 300M318 202L292 228M194 326L220 300" stroke="#24a6b8" stroke-width="12" stroke-linecap="round"/>
    <circle cx="194" cy="202" r="7" fill="#eef5ff"/>
    <circle cx="318" cy="202" r="7" fill="#eef5ff"/>
    <circle cx="194" cy="326" r="7" fill="#eef5ff"/>
    <circle cx="318" cy="326" r="7" fill="#eef5ff"/>
    <path d="M168 262H210M302 262H344" stroke="#f0b34f" stroke-width="12" stroke-linecap="round"/>
  </g>
</svg>