<svg xmlns="http://www.w3.org/2000/svg" viewBox="0 0 512 512" fill="none">
  <defs>
    <filter id="shadow" x="-25%" y="-25%" width="150%" height="150%">
      <feDropShadow dx="0" dy="18" stdDeviation="18" flood-color="#102240" flood-opacity="0.14"/>
    </filter>
  </defs>
  <g filter="url(#shadow)">
    <path d="M150 94V418" stroke="#18325f" stroke-width="58" stroke-linecap="round"/>
    <path d="M150 146
             C220 102 306 108 350 148
             C388 183 388 252 350 286
             C307 324 225 322 150 284"
          stroke="#5ad7cf" stroke-width="34" stroke-linecap="round" stroke-linejoin="round"/>
    <path d="M186 166C236 136 303 137 336 170" stroke="#8fe8df" stroke-width="10" stroke-linecap="round" opacity="0.7"/>
    <path d="M404 148v24M404 236v24M404 326v24" stroke="#d7e2ef" stroke-width="10" stroke-linecap="round" opacity="0.92"/>
    <circle cx="150" cy="284" r="28" fill="#24a6b8"/>
    <circle cx="150" cy="284" r="10" fill="#eef5ff"/>
    <circle cx="350" cy="148" r="30" fill="#61d095"/>
    <circle cx="350" cy="148" r="10" fill="#eef5ff"/>
    <circle cx="270" cy="124" r="26" fill="#f0b34f"/>
    <circle cx="270" cy="124" r="9" fill="#eef5ff"/>
    <path d="M184 378h156" stroke="#18325f" stroke-width="14" stroke-linecap="round" opacity="0.22"/>
    <path d="M184 412h114" stroke="#18325f" stroke-width="14" stroke-linecap="round" opacity="0.14"/>
  </g>
</svg>