<svg xmlns="http://www.w3.org/2000/svg" viewBox="0 0 512 512" fill="none">
  <defs><filter id="s" x="-20%" y="-20%" width="140%" height="140%"><feDropShadow dx="0" dy="18" stdDeviation="18" flood-color="#1a2f52" flood-opacity="0.08"/></filter></defs>
  <g filter="url(#s)">
    <path d="M122 370V140" stroke="#18325f" stroke-width="18" stroke-linecap="round"/>
    <path d="M122 370H390" stroke="#18325f" stroke-width="18" stroke-linecap="round"/>
    <path d="M146 318C186 300 202 272 224 236C245 202 270 180 316 164C338 156 360 152 384 152" stroke="#68b6ff" stroke-width="22" stroke-linecap="round"/>
    <path d="M146 208C180 218 208 236 236 270C260 299 288 324 338 344C354 350 370 354 388 356" stroke="#f17da1" stroke-width="18" stroke-linecap="round"/>
    <circle cx="316" cy="164" r="14" fill="#68b6ff"/>
    <circle cx="338" cy="344" r="14" fill="#f17da1"/>
    <path d="M176 124l28 0M176 124v26" stroke="#24a6b8" stroke-width="10" stroke-linecap="round"/>
    <path d="M350 390l26 0M376 390v-26" stroke="#24a6b8" stroke-width="10" stroke-linecap="round"/>
  </g>
</svg>