<svg xmlns="http://www.w3.org/2000/svg" viewBox="0 0 1400 900" width="1400" height="900" fill="none">
  <defs>
    <linearGradient id="bg" x1="0" y1="0" x2="1400" y2="900" gradientUnits="userSpaceOnUse">
      <stop stop-color="#fbfdff"/>
      <stop offset="1" stop-color="#eef5ff"/>
    </linearGradient>
    <linearGradient id="film" x1="250" y1="170" x2="1150" y2="730" gradientUnits="userSpaceOnUse">
      <stop stop-color="#0c2a54"/>
      <stop offset="1" stop-color="#123f76"/>
    </linearGradient>
    <linearGradient id="channel" x1="0" y1="0" x2="1" y2="1">
      <stop stop-color="#49d7f5"/>
      <stop offset="1" stop-color="#6887ff"/>
    </linearGradient>
    <filter id="soft" x="-50%" y="-50%" width="200%" height="200%">
      <feGaussianBlur stdDeviation="8" result="b"/>
      <feMerge><feMergeNode in="b"/><feMergeNode in="SourceGraphic"/></feMerge>
    </filter>
  </defs>
  <rect x="30" y="30" width="1340" height="840" rx="52" fill="url(#bg)"/>
  <rect x="160" y="220" width="90" height="460" rx="24" fill="#0b1b3c"/>
  <rect x="1150" y="220" width="90" height="460" rx="24" fill="#0b1b3c"/>
  <rect x="250" y="170" width="900" height="560" rx="44" fill="url(#film)"/>
  <path d="M300 290 C390 230 520 250 620 330 C720 410 830 430 930 390 C1010 360 1060 320 1100 300" stroke="url(#channel)" stroke-width="52" stroke-linecap="round"/>
  <path d="M300 520 C380 460 480 450 570 500 C700 570 830 610 980 560 C1040 540 1080 515 1100 500" stroke="#67e0c4" stroke-width="42" stroke-linecap="round" opacity="0.9"/>
  <path d="M340 650 C430 600 540 610 650 660 C760 710 900 710 1030 650" stroke="#8bc6ff" stroke-width="26" stroke-linecap="round" opacity="0.75"/>
  <g filter="url(#soft)">
    <circle cx="420" cy="286" r="20" fill="#49d7f5"/>
    <circle cx="610" cy="330" r="20" fill="#6887ff"/>
    <circle cx="846" cy="395" r="20" fill="#49d7f5"/>
    <circle cx="520" cy="485" r="18" fill="#67e0c4"/>
    <circle cx="760" cy="575" r="18" fill="#67e0c4"/>
    <circle cx="968" cy="558" r="18" fill="#67e0c4"/>
  </g>
  <g>
    <circle cx="390" cy="620" r="16" fill="#f4c85f"/>
    <circle cx="470" cy="560" r="16" fill="#f4c85f"/>
    <circle cx="560" cy="620" r="16" fill="#f4c85f"/>
    <circle cx="690" cy="540" r="16" fill="#f4c85f"/>
    <circle cx="860" cy="650" r="16" fill="#f4c85f"/>
    <circle cx="980" cy="610" r="16" fill="#f4c85f"/>
  </g>
  <path d="M320 120 H1080" stroke="#d1dff6" stroke-width="10" stroke-linecap="round" opacity="0.7"/>
  <path d="M320 790 H1080" stroke="#d1dff6" stroke-width="10" stroke-linecap="round" opacity="0.7"/>
  <path d="M260 165 C280 140 300 130 330 122" stroke="#0b1b3c" stroke-width="10" stroke-linecap="round" opacity="0.18"/>
  <path d="M1140 735 C1164 720 1184 700 1198 674" stroke="#0b1b3c" stroke-width="10" stroke-linecap="round" opacity="0.18"/>
  <rect x="1020" y="90" width="230" height="170" rx="28" fill="#ffffff" stroke="#d9e3f6" stroke-width="6"/>
  <path d="M1060 210 C1100 140 1150 130 1205 170 C1220 182 1230 195 1236 208" stroke="#6887ff" stroke-width="10" stroke-linecap="round"/>
  <path d="M1060 210 C1088 236 1118 248 1154 248 C1192 248 1218 232 1238 204" stroke="#f08aa7" stroke-width="10" stroke-linecap="round"/>
  <circle cx="1060" cy="210" r="8" fill="#0b1b3c"/>
  <circle cx="1238" cy="204" r="8" fill="#0b1b3c"/>
</svg>